<?xml version="1.0" encoding="UTF-8"?>
<svg width="88px" height="85px" viewBox="0 0 88 85" version="1.1" xmlns="http://www.w3.org/2000/svg" xmlns:xlink="http://www.w3.org/1999/xlink">
    <g id="Page-1" stroke="none" stroke-width="1" fill="none" fill-rule="evenodd">
        <g id="noun_742668" fill-rule="nonzero">
            <path d="M87.9541855,66.2301788 L86.8241806,18.714653 L86.7756195,16.6694069 L84.7536392,16.3577633 L65.8385162,13.4417782 L65.8385162,6.7972937 L65.8385162,1.665926 L65.8385162,0.8920684 L16.4796219,10.3971763 L16.4796219,15.5939288 L16.4796219,16.4245791 L16.4796219,22.5051951 L2.7759237,25.2016468 L0.7433247,25.6015816 L0.8052473,27.672123 L2.1612282,73.0166398 L2.2065668,74.5328599 L3.5854549,75.1649781 L24.1513824,84.5918122 L24.950056,84.9578629 L25.7988414,84.7316514 L86.1406383,68.6493455 L88,68.1537247 L87.9541855,66.2301788 Z M21.7738514,15.3918152 L60.01478,7.9331455 L60.01478,13.9388351 L21.7738514,21.4633636 L21.7738514,15.3918152 Z M25.6986198,82.2294388 L23.7731628,34.1455116 L3.805109,27.4893341 L16.4796219,24.9954758 L16.4796219,28.2228661 L21.7738514,29.5682259 L21.7738514,23.9536438 L60.01478,16.4291134 L60.01478,19.8700714 L65.8385181,21.458353 L65.8385181,15.9139251 L84.3813877,18.7726402 L85.5113926,66.2881622 L25.6986198,82.2294388 Z" id="Shape" fill="#4A4A4A"></path>
            <ellipse id="Oval" fill="#673AB8" transform="translate(38.503899, 54.571967) rotate(-74.891484) translate(-38.503899, -54.571967) " cx="38.5038992" cy="54.5719671" rx="12.5840435" ry="9.77398968"></ellipse>
            <ellipse id="Oval" fill="#673AB8" transform="translate(72.468680, 46.264030) rotate(-74.891484) translate(-72.468680, -46.264030) " cx="72.4686799" cy="46.2640301" rx="12.5840435" ry="9.77398968"></ellipse>
            <polygon id="Shape" fill="#4A4A4A" points="50.3142357 55.7848892 60.576973 53.1466637 60.576973 44.1870499 49.9883919 46.630558"></polygon>
            <polygon id="Shape" fill="#8F8F8F" points="79.147644 23.7837429 29.7887535 34.4130096 29.7887535 40.4404144 79.147644 29.6889725"></polygon>
        </g>
    </g>
</svg>